<?xml version="1.0" encoding="utf-8"?>
<!-- Generator: Adobe Illustrator 28.3.0, SVG Export Plug-In . SVG Version: 6.00 Build 0)  -->
<svg version="1.1" id="Ebene_1" xmlns="http://www.w3.org/2000/svg" xmlns:xlink="http://www.w3.org/1999/xlink" x="0px" y="0px"
	 viewBox="0 0 940.31 277.8" style="enable-background:new 0 0 940.31 277.8;" xml:space="preserve">
<style type="text/css">
	.st0{fill:#FFFFFF;}
</style>
<g>
	<path class="st0" d="M140.97,13.52c49.83,8.86,73.07,47.28,73.07,120.58v7.66c0,75.95-22.57,113.92-73.07,122.55l0,0
		c-0.31,0.05-0.58,0.36-0.58,0.68v12.16c0,0.31,0.25,0.55,0.56,0.54c41.98-2.76,76.86-14.99,101.06-35.48
		c27.71-23.47,41.77-57.26,41.77-100.45v-7.66c0-42.7-14.33-76.14-42.58-99.41C216.87,14.67,182.25,2.71,140.89,0
		c-0.28,0.02-0.51,0.25-0.51,0.54v12.3C140.39,13.16,140.65,13.47,140.97,13.52L140.97,13.52z"/>
	<path class="st0" d="M99.21,277.22v-18.11V18.58V0.61c0-0.32-0.26-0.58-0.58-0.58H1.61C0.72,0.03,0,0.75,0,1.64v5.21
		c0.01,0.88,0.68,1.69,1.59,1.81c30.26,4.92,34.87,12.01,34.87,50.44v159.49c0,40.5-7.13,46.58-34.94,50.54
		C0.64,269.28,0,270.04,0,270.91v5.28c0,0.89,0.72,1.61,1.61,1.61h97.02C98.95,277.8,99.21,277.54,99.21,277.22z"/>
	<path class="st0" d="M444.73,261.17L387.55,41.51c-2.57-10.07-3.49-17.99,0.35-23.92c2.86-4.42,7.95-7.19,16.38-8.87h0.01
		c0.83-0.16,1.52-0.92,1.6-1.75l-0.01-5.34c0-0.92-0.73-1.61-1.62-1.61H287.65c-0.89,0-1.61,0.72-1.61,1.61v5.34
		c0,0.89,0.71,1.72,1.61,1.91l-0.12-0.03c18.69,4.2,25.6,12.57,33.02,39.05l66.48,229.31c0.12,0.41,0.43,0.58,0.75,0.58h52.59
		c0.36,0,0.63-0.2,0.72-0.58l3.7-15.13C444.83,261.81,444.82,261.52,444.73,261.17z"/>
	<path class="st0" d="M585.94,261.31l0.02,0.06l-11.68-45.65L519.3,0.61c-0.08-0.31-0.41-0.58-0.73-0.58h-67.96
		c-0.32,0-0.49,0.32-0.42,0.56l78.27,276.72l-0.03-0.09c0.12,0.41,0.42,0.58,0.74,0.58h52.62c0.36,0,0.62-0.2,0.71-0.58l3.46-14.99
		C586.04,261.96,586.03,261.67,585.94,261.31z"/>
	<path class="st0" d="M684.93,6.97l-0.01-5.51c-0.08-0.83-0.77-1.43-1.6-1.43h-84.96c-0.87,0-1.58,0.69-1.61,1.56v5.22
		c0.01,0.88,0.69,1.65,1.61,1.78l0,0c8.67,1.26,16.16,3.14,20.85,10.05c7.09,10.43,6.09,31.14-3.34,69.25l-8.38,37.2
		c-0.08,0.35-0.08,0.64-0.01,0.92l8.29,32.45c0.09,0.35,0.61,0.36,0.7-0.01l19.59-84.61c12.92-53.1,26.64-60.65,47.27-64.98h-0.02
		C684.21,8.68,684.91,7.84,684.93,6.97z"/>
	<path class="st0" d="M841.11,1.58c-0.03-0.86-0.74-1.55-1.6-1.55H706.63c-0.85,0.02-1.53,0.69-1.57,1.52v5.28
		c0,0.89,0.68,1.67,1.6,1.82c30.25,4.92,34.86,12.01,34.86,50.44v159.49c0,40.48-7.12,46.58-34.89,50.53
		c-0.87,0.12-1.51,0.84-1.57,1.66v5.43c0.01,0.88,0.73,1.58,1.61,1.58h97.02c0.32,0,0.58-0.26,0.58-0.58l0.01-222.65l0,0
		c0.4-34.25,5.94-40.87,35.39-45.57c0.84-0.18,1.44-0.95,1.45-1.78L841.11,1.58z"/>
	<path class="st0" d="M940.27,168.96c0-0.89-0.61-1.61-1.5-1.61h-2.97c-0.82,0-1.65,0.63-1.95,1.41
		c-13.78,53.88-27.78,89.69-87.82,93.31l0,0c-0.32,0.02-0.58,0.29-0.58,0.61v14.54c0,0.32,0.26,0.58,0.58,0.58h85.94
		c0.89,0,1.69-0.72,1.69-1.61L940.27,168.96z"/>
</g>
</svg>
